<svg width="16" height="12" viewBox="0 0 16 12" fill="none" xmlns="http://www.w3.org/2000/svg">
<path d="M15.5422 1.63931L14.9193 1.01636L9.14879 6.78685C8.42748 7.50816 7.21437 7.50816 6.49305 6.78685L0.722561 1.04915L0.0996094 1.6721L4.39469 5.96718L0.0996094 10.2623L0.722561 10.8852L5.01764 6.59013L5.8701 7.44259C6.39469 7.96718 7.08322 8.26226 7.80453 8.26226C8.52584 8.26226 9.21437 7.96718 9.73896 7.44259L10.5914 6.59013L14.8865 10.8852L15.5094 10.2623L11.2144 5.96718L15.5422 1.63931Z" fill="white"/>
<path d="M14.3279 12H1.37705C0.622953 12 0 11.3771 0 10.623V1.37705C0 0.62295 0.622953 0 1.37705 0H14.3279C15.082 0 15.7049 0.62295 15.7049 1.37705V10.623C15.7049 11.3771 15.082 12 14.3279 12ZM1.34426 0.885245C1.08197 0.885245 0.885248 1.08196 0.885248 1.34426V10.5902C0.885248 10.8525 1.08197 11.0492 1.34426 11.0492H14.2951C14.5574 11.0492 14.7541 10.8525 14.7541 10.5902V1.34426C14.7541 1.08196 14.5574 0.885245 14.2951 0.885245H1.34426Z" fill="white"/>
</svg>
