<svg width="13" height="12" viewBox="0 0 13 12" fill="none" xmlns="http://www.w3.org/2000/svg">
<path d="M2.61496 12H0.0435268V3.42857H2.61496V12ZM12.0435 12H9.4721V7.42114C9.4721 6.228 9.04696 5.634 8.20438 5.634C7.53667 5.634 7.11324 5.96657 6.90067 6.63257C6.90067 7.71429 6.90067 12 6.90067 12H4.32924C4.32924 12 4.36353 4.28571 4.32924 3.42857H6.35896L6.51581 5.14286H6.56896C7.0961 4.28571 7.93867 3.70457 9.0941 3.70457C9.97267 3.70457 10.6832 3.94886 11.2258 4.56257C11.7718 5.17714 12.0435 6.00171 12.0435 7.15971V12Z" fill="white"/>
<path d="M1.32857 2.57143C2.06232 2.57143 2.65714 1.99579 2.65714 1.28571C2.65714 0.575634 2.06232 0 1.32857 0C0.594822 0 0 0.575634 0 1.28571C0 1.99579 0.594822 2.57143 1.32857 2.57143Z" fill="white"/>
</svg>
