<svg width="12" height="10" viewBox="0 0 12 10" fill="none" xmlns="http://www.w3.org/2000/svg">
<path d="M11.1277 0.0661214L0.55709 4.13963C-0.164368 4.42884 -0.16009 4.83089 0.425588 5.01016L3.06192 5.83229L4.07064 8.92224C4.19327 9.26044 4.13282 9.39457 4.48827 9.39457C4.76258 9.39457 4.88427 9.26962 5.03705 9.1205C5.1342 9.02551 5.71105 8.46517 6.35514 7.8395L9.09742 9.86384C9.60203 10.142 9.96639 9.99789 10.092 9.39559L11.8921 0.920295C12.0764 0.182056 11.6104 -0.152805 11.1277 0.0661214ZM3.47566 5.64341L9.41797 1.89766C9.71461 1.71791 9.98661 1.81455 9.76329 2.01261L4.67512 6.5994L4.477 8.71061L3.47566 5.64341Z" fill="white"/>
</svg>
