<svg width="12" height="10" viewBox="0 0 12 10" fill="none" xmlns="http://www.w3.org/2000/svg">
<path fill-rule="evenodd" clip-rule="evenodd" d="M6.77461 0.513748C6.43392 0.753555 6.17885 1.09599 5.99148 1.47267L5.90647 1.69538C5.85546 1.84932 5.82115 2.0036 5.80415 2.15758C5.78715 2.24311 5.78715 2.31183 5.77015 2.38029V2.51716L5.78715 2.73986L5.82115 3.03098H5.80415H5.7021H5.63405C4.79991 3.01388 3.98307 2.82539 3.26795 2.50006L2.84255 2.29476C2.75753 2.26025 2.68949 2.20893 2.60417 2.15762C2.12773 1.8836 1.70232 1.52403 1.32759 1.13028C1.08952 0.873364 0.868145 0.599348 0.680817 0.308226C0.476711 0.702316 0.35743 1.16449 0.35743 1.6441C0.35743 1.81519 0.374432 1.98653 0.408438 2.15762C0.408438 2.24314 0.42544 2.31187 0.442743 2.38032C0.595804 2.89384 0.868145 3.35635 1.24258 3.69879L1.42994 3.87018L1.19157 3.81856C0.885186 3.733 0.578801 3.63037 0.289419 3.5103C0.323424 4.12679 0.561799 4.69189 0.936193 5.13729C1.29359 5.56499 1.77033 5.89062 2.31479 6.04456L1.68502 6.07877L1.15753 6.06167C1.54896 7.02086 2.45111 7.72287 3.52336 7.80843C2.53616 8.54466 1.31059 8.95585 0 8.95585C0.970199 9.5552 2.07672 9.93158 3.28495 10H4.06809C7.79552 9.79467 10.7404 6.69526 10.7404 2.89381V2.53427C10.8764 2.41453 11.0125 2.29476 11.1491 2.15762C11.4722 1.8665 11.7619 1.52403 12 1.16449C11.6083 1.4214 11.1491 1.55827 10.6384 1.55827H10.6214H10.6044H10.6214C11.0805 1.25005 11.4382 0.78784 11.6253 0.256912C11.2682 0.445404 10.8595 0.582243 10.4507 0.702316L10.3997 0.719421L10.0936 0.78784C9.65094 0.308226 9.02113 0 8.32331 0H8.30635H8.27234C8.08528 0 7.89765 0.0171047 7.71054 0.0516163C7.43846 0.120036 7.16578 0.239807 6.94471 0.376947L6.77461 0.513748Z" fill="white"/>
</svg>
