<svg width="22" height="16" viewBox="0 0 22 16" fill="none" xmlns="http://www.w3.org/2000/svg">
<rect width="21.9993" height="16" rx="2" fill="white"/>
<path d="M11.4414 8.88892L0.00177574 8.88892V2.00003C0.00177574 0.895458 0.897206 2.76566e-05 2.00178 2.76566e-05L11.4414 2.76566e-05L11.4414 8.88892Z" fill="#3F51B5"/>
<path d="M22 1.77778C22 0.795938 21.2041 0 20.2222 0H11.4403V1.77778H22Z" fill="#F44336"/>
<rect width="10.5597" height="1.77778" transform="matrix(-1 0 0 1 22 3.55554)" fill="#F44336"/>
<rect width="10.5597" height="1.77778" transform="matrix(-1 0 0 1 22 7.11108)" fill="#F44336"/>
<rect width="21.9993" height="1.77778" transform="matrix(-1 0 0 1 22 10.6666)" fill="#F44336"/>
<path d="M0 14.2222C0 15.2041 0.795938 16 1.77778 16L20.2215 16C21.2034 16 21.9993 15.2041 21.9993 14.2222L0 14.2222Z" fill="#F44336"/>
<path d="M1.75888 0.888916L2.01749 1.41824L2.59578 1.50312L2.17733 1.91515L2.27611 2.49693L1.75888 2.22225L1.24164 2.49693L1.34043 1.91515L0.921975 1.50312L1.50026 1.41824L1.75888 0.888916Z" fill="white"/>
<path d="M4.40146 0.888916L4.66007 1.41824L5.23836 1.50312L4.81991 1.91515L4.91869 2.49693L4.40146 2.22225L3.88422 2.49693L3.983 1.91515L3.56455 1.50312L4.14284 1.41824L4.40146 0.888916Z" fill="white"/>
<path d="M7.04013 0.888916L7.29874 1.41824L7.87703 1.50312L7.45858 1.91515L7.55736 2.49693L7.04013 2.22225L6.52289 2.49693L6.62168 1.91515L6.20323 1.50312L6.78151 1.41824L7.04013 0.888916Z" fill="white"/>
<path d="M9.6788 0.888916L9.93742 1.41824L10.5157 1.50312L10.0973 1.91515L10.196 2.49693L9.6788 2.22225L9.16157 2.49693L9.26035 1.91515L8.8419 1.50312L9.42018 1.41824L9.6788 0.888916Z" fill="white"/>
<path d="M1.75888 6.22229L2.01749 6.75162L2.59578 6.8365L2.17733 7.24852L2.27611 7.83031L1.75888 7.55562L1.24164 7.83031L1.34043 7.24852L0.921975 6.8365L1.50026 6.75162L1.75888 6.22229Z" fill="white"/>
<path d="M4.40146 6.22229L4.66007 6.75162L5.23836 6.8365L4.81991 7.24852L4.91869 7.83031L4.40146 7.55562L3.88422 7.83031L3.983 7.24852L3.56455 6.8365L4.14284 6.75162L4.40146 6.22229Z" fill="white"/>
<path d="M7.04013 6.22229L7.29874 6.75162L7.87703 6.8365L7.45858 7.24852L7.55736 7.83031L7.04013 7.55562L6.52289 7.83031L6.62168 7.24852L6.20323 6.8365L6.78151 6.75162L7.04013 6.22229Z" fill="white"/>
<path d="M9.6788 6.22229L9.93742 6.75162L10.5157 6.8365L10.0973 7.24852L10.196 7.83031L9.6788 7.55562L9.16157 7.83031L9.26035 7.24852L8.8419 6.8365L9.42018 6.75162L9.6788 6.22229Z" fill="white"/>
<path d="M3.03807 3.55554L3.29669 4.08487L3.87498 4.16975L3.45653 4.58177L3.55531 5.16356L3.03807 4.88888L2.52084 5.16356L2.61962 4.58177L2.20117 4.16975L2.77946 4.08487L3.03807 3.55554Z" fill="white"/>
<path d="M5.76073 3.55554L6.01935 4.08487L6.59763 4.16975L6.17918 4.58177L6.27797 5.16356L5.76073 4.88888L5.2435 5.16356L5.34228 4.58177L4.92383 4.16975L5.50211 4.08487L5.76073 3.55554Z" fill="white"/>
<path d="M8.31737 3.55554L8.57599 4.08487L9.15427 4.16975L8.73582 4.58177L8.83461 5.16356L8.31737 4.88888L7.80014 5.16356L7.89892 4.58177L7.48047 4.16975L8.05875 4.08487L8.31737 3.55554Z" fill="white"/>
</svg>
