<svg width="306" height="73" viewBox="0 0 306 73" fill="none" xmlns="http://www.w3.org/2000/svg">
<path fill-rule="evenodd" clip-rule="evenodd" d="M20.56 31.6601L14.78 20.0001H5V9.00007H22.06L33.28 31.6601H48.34C49.0548 31.6495 49.7605 31.4973 50.4162 31.2124C51.0718 30.9275 51.6645 30.5154 52.16 30.0001C53.2654 28.8776 53.885 27.3654 53.885 25.7901C53.885 24.2147 53.2654 22.7025 52.16 21.5801C51.1454 20.5694 49.7721 20.0014 48.34 20.0001H35.91V9.00007H48.34C50.596 8.99377 52.8311 9.43211 54.9175 10.29C57.004 11.148 58.901 12.4087 60.5 14.0001C63.4833 16.9255 65.2456 20.8738 65.4312 25.048C65.6168 29.2222 64.2119 33.3114 61.5 36.4901L61.68 36.6701C63.2462 38.2062 64.4904 40.0392 65.3398 42.0619C66.1891 44.0845 66.6266 46.2563 66.6266 48.4501C66.6266 50.6438 66.1891 52.8156 65.3398 54.8383C64.4904 56.861 63.2462 58.694 61.68 60.2301C60.0856 61.8319 58.1908 63.1033 56.1041 63.9716C54.0175 64.8399 51.7801 65.2879 49.52 65.2901H37.22L26 42.6601H5V31.6601H20.56ZM21.06 65.3301H5V54.3301H21.06V65.3301V65.3301ZM38.73 42.6601L44.51 54.3301H49.51C50.9458 54.3129 52.316 53.7266 53.32 52.7001C54.4254 51.5776 55.045 50.0654 55.045 48.4901C55.045 46.9147 54.4254 45.4025 53.32 44.2801C52.8209 43.7724 52.2266 43.368 51.5712 43.09C50.9157 42.8121 50.2119 42.666 49.5 42.6601H38.73Z" fill="#231F20"/>
<path d="M125.22 36.7702C126.981 34.9944 127.978 32.6009 128 30.1002C128 24.5602 123.14 20.1002 117.11 20.0502H96.92V27.2602H117.66C118.499 27.2602 119.304 27.5936 119.898 28.1872C120.492 28.7807 120.825 29.5858 120.825 30.4252C120.825 31.2646 120.492 32.0696 119.898 32.6632C119.304 33.2567 118.499 33.5902 117.66 33.5902H96.92V40.8502H118.6C119.439 40.8502 120.244 41.1836 120.838 41.7772C121.432 42.3707 121.765 43.1758 121.765 44.0152C121.765 44.8546 121.432 45.6596 120.838 46.2532C120.244 46.8467 119.439 47.1802 118.6 47.1802H96.92V54.3402H118.06C124.06 54.3402 129 49.8802 129 44.3402C128.987 42.8768 128.64 41.4358 127.985 40.1273C127.329 38.8187 126.384 37.6773 125.22 36.7902V36.7702Z" fill="#231F20"/>
<path d="M254.74 41.2801H240L243 27.2101H251.63L254.63 41.2801H254.74ZM265.04 54.2801L258.04 22.0601C257.904 21.4503 257.56 20.9067 257.068 20.5219C256.575 20.1371 255.965 19.9351 255.34 19.9501H239.44C238.815 19.9351 238.205 20.1371 237.712 20.5219C237.22 20.9067 236.876 21.4503 236.74 22.0601L229.74 54.2801H237.14L238.42 48.4001H256.32L257.54 54.2801H265.04Z" fill="#231F20"/>
<path d="M221.47 54.3301V20.0001H214.22V42.5101H214.07L198.33 20.0001H190.78V54.3301H198.04V31.8201H198.18L213.92 54.3301H221.47Z" fill="#231F20"/>
<path d="M183.46 27.2101V20.0001H152.76V27.2101H164.48V54.3301H171.74V27.2101H183.46Z" fill="#231F20"/>
<path d="M138.16 54.3301H145.42V20.0001H138.16V54.3301Z" fill="#231F20"/>
<path d="M302.93 54.3302V34.4402H287.12V41.7102H295.71V47.1102H281C280.429 47.1049 279.882 46.8757 279.478 46.4717C279.074 46.0678 278.845 45.5214 278.84 44.9502V29.3802C278.839 29.0961 278.894 28.8147 279.002 28.552C279.11 28.2893 279.269 28.0507 279.47 27.8499C279.671 27.649 279.909 27.49 280.172 27.3819C280.435 27.2738 280.716 27.2188 281 27.2202H303V20.0002H279.75C278.682 19.9936 277.623 20.1982 276.635 20.6023C275.646 21.0064 274.748 21.602 273.99 22.3548C273.233 23.1077 272.632 24.0028 272.221 24.9888C271.811 25.9748 271.6 27.0322 271.6 28.1002V46.1702C271.593 47.2423 271.8 48.3051 272.207 49.2969C272.614 50.2887 273.214 51.1898 273.972 51.9479C274.73 52.706 275.631 53.3061 276.623 53.7133C277.615 54.1205 278.678 54.3268 279.75 54.3202L302.93 54.3302Z" fill="#231F20"/>
</svg>
