<svg width="18" height="18" viewBox="0 0 18 18" fill="none" xmlns="http://www.w3.org/2000/svg">
<path d="M11.6447 8.99953L17.315 3.32925C18.1468 2.49742 18.2321 1.2222 17.5045 0.494583C16.7769 -0.233032 15.5007 -0.147764 14.6698 0.684066L8.99953 6.35434L3.32925 0.684066C2.49742 -0.147764 1.2222 -0.233032 0.494583 0.49553C-0.233032 1.22409 -0.147765 2.49931 0.684066 3.3302L6.35434 9.00047L0.684066 14.6708C-0.147765 15.5026 -0.233032 16.7778 0.49553 17.5054C1.22409 18.233 2.49931 18.1478 3.3302 17.3159L9.00047 11.6457L14.6708 17.3159C15.5026 18.1478 16.7778 18.233 17.5054 17.5054C18.233 16.7778 18.1478 15.5016 17.3159 14.6708L11.6457 9.00047L11.6447 8.99953Z" fill="white"/>
</svg>
