<svg xmlns="http://www.w3.org/2000/svg" viewBox="0 0 61.63 56.33"><defs><style>.cls-1{fill:#231f20;fill-rule:evenodd;}</style></defs><title>logo-bitnag-Asset 2-rgb</title><g id="Layer_2" data-name="Layer 2"><g id="Layer_1-2" data-name="Layer 1"><path class="cls-1" d="M15.56,22.66,9.78,11H0V0H17.06L28.28,22.66H43.34A5.41,5.41,0,0,0,47.16,21a6,6,0,0,0,0-8.42A5.42,5.42,0,0,0,43.34,11H30.91V0H43.34A17.17,17.17,0,0,1,55.5,5a16.5,16.5,0,0,1,1,22.49l.18.18a16.5,16.5,0,0,1,0,23.56,17.18,17.18,0,0,1-12.16,5.06H32.22L21,33.66H0v-11Zm.5,33.67H0v-11H16.06v11ZM33.73,33.66l5.78,11.67h5a5.42,5.42,0,0,0,3.81-1.63,6,6,0,0,0,0-8.42,5.42,5.42,0,0,0-3.82-1.62Z"/></g></g></svg>