<svg width="46" height="46" viewBox="0 0 46 46" fill="none" xmlns="http://www.w3.org/2000/svg">
<path d="M15.8125 12.2188L23 15.8125V25.3958L15.8125 21.8021V12.2188Z" stroke="#9C9C9C" stroke-linejoin="round"/>
<path d="M23 15.8125L30.1875 12.2188V21.8021L23 25.3958V15.8125Z" stroke="#9C9C9C" stroke-linejoin="round"/>
<path d="M23 15.8125L30.1875 12.2187L23 8.625L15.8125 12.2187L23 15.8125Z" stroke="#9C9C9C" stroke-linejoin="round"/>
<path d="M8.625 25.3959L15.8125 28.9897V38.573L8.625 34.9793V25.3959Z" stroke="#9C9C9C" stroke-linejoin="round"/>
<path d="M15.8125 28.9897L23 25.3959V34.9793L15.8125 38.573V28.9897Z" stroke="#9C9C9C" stroke-linejoin="round"/>
<path d="M15.8125 28.9897L23 25.3959L15.8125 21.8022L8.625 25.3959L15.8125 28.9897Z" stroke="#9C9C9C" stroke-linejoin="round"/>
<path d="M23 25.3959L30.1875 28.9897V38.573L23 34.9793V25.3959Z" stroke="#9C9C9C" stroke-linejoin="round"/>
<path d="M30.1875 28.9897L37.375 25.3959V34.9793L30.1875 38.573V28.9897Z" stroke="#9C9C9C" stroke-linejoin="round"/>
<path d="M30.1875 28.9897L37.375 25.3959L30.1875 21.8022L23 25.3959L30.1875 28.9897Z" stroke="#9C9C9C" stroke-linejoin="round"/>
</svg>
