<svg width="46" height="46" viewBox="0 0 46 46" fill="none" xmlns="http://www.w3.org/2000/svg">
<path d="M10.482 11.7958L10.4819 11.7958C9.91167 11.8275 9.4604 12.2999 9.45188 12.8602L10.482 11.7958ZM10.482 11.7958C13.1036 11.6497 15.428 11.1424 17.5743 10.2354C19.5654 9.394 21.3467 8.23306 23.0004 6.70319C24.6544 8.23304 26.4357 9.39398 28.4264 10.2353L28.4265 10.2353C30.5728 11.1424 32.8972 11.6497 35.5191 11.7958L35.5192 11.7958C36.0895 11.8275 36.5407 12.3 36.5489 12.8605L36.5489 12.8607C36.5558 13.3224 36.5678 13.7427 36.5859 14.1428C36.6741 18.7888 36.759 23.8809 35.0506 28.5053C33.1337 33.6937 29.2363 37.292 23.0003 39.4866C16.7572 37.296 12.8575 33.6997 10.9422 28.5114L10.2386 28.7711M10.482 11.7958L10.2386 28.7711M10.2386 28.7711L10.9422 28.5114C9.23785 23.8945 9.32617 18.8036 9.41476 14.1603C9.41477 14.1598 9.41478 14.1592 9.41479 14.1587L9.41513 14.1444C9.43323 13.7414 9.44526 13.3206 9.45188 12.8604L10.2386 28.7711Z" stroke="#9C9C9C" stroke-width="1.5"/>
<path d="M17.25 23L20.7271 26.8561C20.9578 27.1605 21.2602 27.3125 21.5625 27.3125C21.8648 27.3125 22.1672 27.1605 22.3979 26.8561L28.75 18.6875" stroke="#9C9C9C" stroke-width="1.5" stroke-linecap="round"/>
</svg>
